# xmcd CD database file
#
# Track frame offsets:
#	150
#	23222
#	37917
#	69787
#	88340
#	107232
#	124657
#	150962
#	164312
#	180652
#	203032
#	216222
#	236315
#	250877
#
# Disc length: 3572 seconds
#
# Revision: 1
# Processed by: cddbd v1.5PL3 Copyright (c) Steve Scherf et al.
# Submitted via: CDex 1.51
#
DISCID=ae0df20e
DTITLE=Al Cohn - Al Cohn Meets Al Porcino
DYEAR=1987
DGENRE=Jazz
TTITLE0=Jumpin' With Symphony sid
TTITLE1=Dancing In The Dark
TTITLE2=Body and Soul
TTITLE3=The Fuzz
TTITLE4=My Heart Belongs To Daddy
TTITLE5=Autumn In New York
TTITLE6=Mambo Di Paulo
TTITLE7=The Goof And I
TTITLE8=I Cover The Waterfront
TTITLE9=No Thanks
TTITLE10=Mr President
TTITLE11=All The Things You Are
TTITLE12=Music To Dance To
TTITLE13=Tiny's Blues
EXTD=YEAR: 1987
EXTT0=
EXTT1=
EXTT2=
EXTT3=
EXTT4=
EXTT5=
EXTT6=
EXTT7=
EXTT8=
EXTT9=
EXTT10=
EXTT11=
EXTT12=
EXTT13=
PLAYORDER=
